<mxfile host="Electron" agent="Mozilla/5.0 (X11; Linux x86_64) AppleWebKit/537.36 (KHTML, like Gecko) draw.io/24.7.8 Chrome/128.0.6613.36 Electron/32.0.1 Safari/537.36" version="24.7.8">
  <diagram name="Page-1" id="P5wW9S1lYLrC5-m_l4sB">
    <mxGraphModel dx="778" dy="466" grid="1" gridSize="10" guides="1" tooltips="1" connect="1" arrows="1" fold="1" page="1" pageScale="1" pageWidth="850" pageHeight="1100" math="0" shadow="0">
      <root>
        <mxCell id="0" />
        <mxCell id="1" parent="0" />
        <mxCell id="fXu2MHMI5ME_DaFn9Qup-1" style="rounded=0;orthogonalLoop=1;jettySize=auto;html=1;exitX=0.5;exitY=0;exitDx=0;exitDy=0;entryX=0.5;entryY=1;entryDx=0;entryDy=0;endArrow=block;endFill=0;edgeStyle=orthogonalEdgeStyle;" edge="1" parent="1" source="uo-nHqBHm8gi3DnNTOrJ-7" target="uo-nHqBHm8gi3DnNTOrJ-14">
          <mxGeometry relative="1" as="geometry" />
        </mxCell>
        <mxCell id="uo-nHqBHm8gi3DnNTOrJ-7" value="&lt;div style=&quot;&quot;&gt;&amp;nbsp; User&lt;/div&gt;&lt;div style=&quot;&quot;&gt;&lt;hr&gt;&lt;/div&gt;&lt;div style=&quot;&quot;&gt;&amp;nbsp; {M} AddPassenger(passenger)&lt;/div&gt;&lt;div style=&quot;&quot;&gt;&lt;span style=&quot;background-color: initial;&quot;&gt;&amp;nbsp; {M} EditPassenger(id)&lt;/span&gt;&lt;/div&gt;&lt;div style=&quot;&quot;&gt;&amp;nbsp; {M} BuyTicket(): Ticket&lt;/div&gt;&lt;div style=&quot;&quot;&gt;&lt;hr&gt;&lt;/div&gt;&lt;div style=&quot;&quot;&gt;&lt;div&gt;&amp;nbsp; {A} id&lt;/div&gt;&lt;div&gt;&amp;nbsp; {A} email&lt;/div&gt;&lt;div&gt;&amp;nbsp; {A} password&lt;/div&gt;&lt;div&gt;&amp;nbsp; {A} passengers&lt;/div&gt;&lt;/div&gt;" style="rounded=0;whiteSpace=wrap;html=1;align=left;" parent="1" vertex="1">
          <mxGeometry x="300" y="200" width="180" height="160" as="geometry" />
        </mxCell>
        <mxCell id="fXu2MHMI5ME_DaFn9Qup-3" style="edgeStyle=orthogonalEdgeStyle;rounded=0;orthogonalLoop=1;jettySize=auto;html=1;exitX=0.5;exitY=0;exitDx=0;exitDy=0;entryX=0.5;entryY=1;entryDx=0;entryDy=0;endArrow=block;endFill=0;" edge="1" parent="1" source="uo-nHqBHm8gi3DnNTOrJ-9" target="uo-nHqBHm8gi3DnNTOrJ-7">
          <mxGeometry relative="1" as="geometry" />
        </mxCell>
        <mxCell id="uo-nHqBHm8gi3DnNTOrJ-9" value="&lt;div style=&quot;&quot;&gt;&lt;div&gt;&amp;nbsp; SystemAdmin&lt;/div&gt;&lt;div&gt;&lt;hr&gt;&lt;/div&gt;&lt;div&gt;&amp;nbsp; {M} GetUsers()&lt;/div&gt;&lt;div&gt;&amp;nbsp; {M} GetUser(id)&lt;/div&gt;&lt;div&gt;&amp;nbsp; {M} EditUser(id)&lt;/div&gt;&lt;div&gt;&amp;nbsp; {M} DeleteUser(id)&lt;/div&gt;&lt;div&gt;&amp;nbsp; {M} TimeoutUser(id)&lt;/div&gt;&lt;div&gt;&amp;nbsp; {M} ResetUserPassword(id)&lt;/div&gt;&lt;/div&gt;" style="rounded=0;whiteSpace=wrap;html=1;align=left;" parent="1" vertex="1">
          <mxGeometry x="230" y="400" width="160" height="130" as="geometry" />
        </mxCell>
        <mxCell id="fXu2MHMI5ME_DaFn9Qup-5" style="edgeStyle=orthogonalEdgeStyle;rounded=0;orthogonalLoop=1;jettySize=auto;html=1;exitX=0.5;exitY=0;exitDx=0;exitDy=0;entryX=0.5;entryY=1;entryDx=0;entryDy=0;endArrow=block;endFill=0;" edge="1" parent="1" source="uo-nHqBHm8gi3DnNTOrJ-10" target="uo-nHqBHm8gi3DnNTOrJ-7">
          <mxGeometry relative="1" as="geometry" />
        </mxCell>
        <mxCell id="uo-nHqBHm8gi3DnNTOrJ-10" value="&lt;div style=&quot;&quot;&gt;&lt;div&gt;&amp;nbsp; ContentAdmin&lt;/div&gt;&lt;div&gt;&lt;hr&gt;&lt;/div&gt;&lt;div&gt;&amp;nbsp; {M}&amp;nbsp;GetRoutes(id)&lt;/div&gt;&lt;div&gt;&amp;nbsp; {M}&amp;nbsp;GetRoute(id)&lt;/div&gt;&lt;div&gt;&amp;nbsp; {M} EditRoute(id)&lt;/div&gt;&lt;div&gt;&amp;nbsp; {M} HideRoute(id)&lt;/div&gt;&lt;div&gt;&amp;nbsp; {M}&amp;nbsp;ShowRoute(id)&lt;/div&gt;&lt;div&gt;&amp;nbsp; {M}&amp;nbsp;DeleteRoute(id)&lt;/div&gt;&lt;/div&gt;" style="rounded=0;whiteSpace=wrap;html=1;align=left;" parent="1" vertex="1">
          <mxGeometry x="410" y="400" width="120" height="130" as="geometry" />
        </mxCell>
        <mxCell id="fXu2MHMI5ME_DaFn9Qup-2" style="edgeStyle=orthogonalEdgeStyle;rounded=0;orthogonalLoop=1;jettySize=auto;html=1;exitX=0.5;exitY=0;exitDx=0;exitDy=0;entryX=0.5;entryY=1;entryDx=0;entryDy=0;endArrow=block;endFill=0;" edge="1" parent="1" source="uo-nHqBHm8gi3DnNTOrJ-11" target="uo-nHqBHm8gi3DnNTOrJ-14">
          <mxGeometry relative="1" as="geometry" />
        </mxCell>
        <mxCell id="uo-nHqBHm8gi3DnNTOrJ-11" value="Guest" style="rounded=0;whiteSpace=wrap;html=1;" parent="1" vertex="1">
          <mxGeometry x="500" y="200" width="55" height="30" as="geometry" />
        </mxCell>
        <mxCell id="uo-nHqBHm8gi3DnNTOrJ-14" value="&lt;div style=&quot;&quot;&gt;&lt;div&gt;&amp;nbsp; BaseUser&lt;/div&gt;&lt;div&gt;&lt;hr&gt;&lt;/div&gt;&lt;div&gt;&amp;nbsp; {M}&amp;nbsp;SearchRoutes()&lt;/div&gt;&lt;/div&gt;" style="rounded=0;whiteSpace=wrap;html=1;align=left;" parent="1" vertex="1">
          <mxGeometry x="400" y="100" width="120" height="60" as="geometry" />
        </mxCell>
      </root>
    </mxGraphModel>
  </diagram>
</mxfile>
